# xmcd CD database file
#
# Track frame offsets:
#	150
#	18342
#	40335
#
# Disc length: 778 seconds
#
# Revision: 0
# Processed by: cddbd v1.5PL3 Copyright (c) Steve Scherf et al.
# Submitted via: CDex 1.51
#
DISCID=1b030803
DTITLE=Be-B - 憧夢 〜風に向かって〜
DYEAR=1994
DGENRE=JPop
TTITLE0=憧夢 〜風に向かって〜
TTITLE1=Still I Remember
TTITLE2=憧夢 〜風に向かって〜 (オリジナル･カラオケ)
EXTD=YEAR: 1994
EXTT0=
EXTT1=
EXTT2=
PLAYORDER=
